<svg xmlns="http://www.w3.org/2000/svg" xmlns:xlink="http://www.w3.org/1999/xlink" version="1.1" x="0px" y="0px" viewBox="0 0 100 125" enable-background="new 0 0 100 100" xml:space="preserve"><g><g><g><path d="M97.918,34.22c-7.587-15.482-5.548-21.792-5.548-21.792c-5.083,5.287-31.478,13.968-47.522,14.583     c-12.755,0.488-17.163,4.419-18.683,7.216l0.602,0.084c0.556-0.84,1.246-1.55,2.059-2.117c0.934-0.649,1.98-1.091,3.077-1.305     c0,0,0.722-0.19,1.541-0.161c0.819,0.032,15.037,0.439,15.037,0.439c2.36,0.032,4.384,1.842,4.685,4.206l1.12,17.438l-1.267,0.16     c0.107,0.264,0.209,0.539,0.291,0.818L63.753,66.97l3.388,3.966c11.879,4.029,22.481,3.676,22.481,3.676     s-4.505-10.775,1.907-16.799C97.941,51.788,103.01,44.596,97.918,34.22z"/><path d="M20.602,32.842c4.253,0.809,8.362-1.975,9.172-6.236c0.816-4.254-1.971-8.359-6.232-9.172     c-4.25-0.814-8.359,1.977-9.166,6.229C13.557,27.925,16.346,32.026,20.602,32.842z"/><path d="M51.955,54.484c-0.196-0.729-0.494-1.441-0.95-2.098l-0.431-0.615L52.7,51.5L51.68,35.56     c-0.207-1.64-1.591-2.874-3.245-2.898L33.65,31.685c-1.287,0.015-3.018,0.644-4.098,1.511c-0.888,0.714-2.648,1.873-3.641,2.325     c-2.027,0.928-8.924-1.069-8.924-1.069L3.108,23.292L0,26.744l13.305,13.319c0.49,0.445,1.105,0.728,1.761,0.822l11.292,1.4     L40.121,59.98c0.03,0.041,0.064,0.076,0.097,0.119l-3.38,9.864c-0.639,1.864,0.119,3.917,1.813,4.918L55.88,85.055l4.218-7.143     l-14.32-8.456l2.252-6.567l8.096,10.219c0.033,0.039,0.063,0.078,0.095,0.117l12.256,14.35l6.305-5.387L62.579,67.898     L51.955,54.484z M36.337,43.412l-1.27,3.89l-1.243-3.899l-4.096-0.008l3.326-2.386l-1.257-3.896l3.295,2.424l3.317-2.4     l-1.287,3.886l3.305,2.41L36.337,43.412z M41.756,39.133l3.705,0.121l1.506,7.349L41.756,39.133z"/></g></g></g></svg>